<svg
   xmlns:svg="http://www.w3.org/2000/svg"
   xmlns="http://www.w3.org/2000/svg"
   xmlns:sodipodi="http://sodipodi.sourceforge.net/DTD/sodipodi-0.dtd"
   xmlns:inkscape="http://www.inkscape.org/namespaces/inkscape"
   width="1000.014"
   height="756.367"
   id="svg2"
   version="1.0">
  <sodipodi:namedview
     id="namedview57"
     pagecolor="#ffffff"
     bordercolor="#666666"
     borderopacity="1.0"
     inkscape:pageshadow="2"
     inkscape:pageopacity="0.0"
     inkscape:pagecheckerboard="0"
     showgrid="false"
     inkscape:zoom="1"
     inkscape:cx="498.5"
     inkscape:cy="436"
     inkscape:window-width="1290"
     inkscape:window-height="996"
     inkscape:window-x="51"
     inkscape:window-y="11"
     inkscape:window-maximized="0"
     inkscape:current-layer="layer1" />
  <g
     inkscape:label="Layer 1"
     inkscape:groupmode="layer"
     id="layer1"
     transform="translate(-295.58445,-204.4031)">
    <rect
       x="295.58444"
       y="204.40311"
       width="1000.0141"
       height="756.36652"
       id="rect1139"
       style="fill:#000000;stroke-width:2.53814" />
    <path
       style="fill:#ffffff;stroke-width:27.3669"
       id="path1149"
       d="M 894.37241,335.73702 H 1045.8209 V 478.2365 H 894.37241 Z m 95.40103,19.81364 c -0.68416,-0.1095 -1.34099,-0.21893 -2.05253,-0.3284 l -0.821,-0.1095 c -1.14939,-0.16421 -2.32618,-0.30103 -3.50295,-0.41052 -0.82102,-0.10952 -1.64203,-0.16418 -2.4083,-0.21893 -1.45045,-0.0822 -2.87352,-0.10951 -4.2145,-0.10951 -0.65681,0 -0.98522,0 -1.61466,0 -1.12203,0.0274 -2.24408,0.0822 -3.36612,0.13689 -0.60207,0.0548 -1.20414,0.10951 -1.83358,0.19157 -0.90311,0.0822 -1.77885,0.1642 -2.65459,0.27367 l -0.73891,0.10951 -0.821,0.1095 -0.98522,0.16421 c -0.46523,0.0822 -0.87575,0.16419 -1.3136,0.24629 -0.60207,0.10951 -1.17677,0.2463 -1.77885,0.35577 -3.58507,0.7389 -6.92383,1.7515 -9.96154,2.95564 -1.58729,0.60207 -3.11984,1.25887 -4.54293,1.97042 -1.2315,0.5747 -2.38092,1.20413 -3.50297,1.86093 -1.06729,0.60208 -2.10724,1.23152 -3.09245,1.88832 -0.57469,0.41051 -1.14941,0.76628 -1.69675,1.14942 -0.46523,0.38312 -0.93047,0.68417 -1.3957,1.03994 -0.95785,0.73891 -1.88833,1.53255 -2.7367,2.27145 -0.821,0.71155 -1.61464,1.42308 -2.35355,2.16199 -0.62943,0.62945 -1.25887,1.28624 -1.86095,1.97042 -0.60208,0.62942 -1.20414,1.34096 -1.77885,2.07989 -0.62945,0.7389 -1.25888,1.5599 -1.86095,2.38092 -0.4105,0.5747 -0.84838,1.2315 -1.25887,1.83357 -0.27367,0.43787 -0.54734,0.84837 -0.84838,1.31362 -1.55992,2.59986 -2.95561,5.33654 -4.07767,8.31953 -1.42308,3.66718 -2.43566,7.58064 -3.01036,11.82251 -0.1642,1.3136 -0.3284,2.70932 -0.38313,4.0503 -0.0822,1.03993 -0.10951,2.13461 -0.10951,3.20193 0,0.79364 0,1.61464 0.0548,2.40829 0.0548,0.79365 0.10952,1.642 0.21894,2.46301 l 0.0548,0.5747 c 0.13689,0.95785 0.27368,1.88833 0.46523,2.84617 0.0822,0.38313 0.13689,0.71154 0.21895,1.12203 0.16419,0.73892 0.32839,1.53255 0.54733,2.29883 0.27368,0.95783 0.54735,1.91568 0.84837,2.84616 0.41052,1.17677 0.82102,2.29882 1.28624,3.3935 0.73891,1.72411 1.53255,3.42086 2.38094,5.00814 0.51995,0.9031 1.03993,1.8062 1.58727,2.70932 0.41051,0.68418 0.87574,1.34098 1.31362,1.99779 0.5747,0.821 1.20413,1.66937 1.80621,2.46302 0.62944,0.821 1.31361,1.61465 1.94304,2.35355 0.82101,0.93047 1.61464,1.77886 2.4083,2.54512 l 0.43787,0.43787 c 0.6568,0.60208 1.34098,1.31362 2.16199,1.97042 0.5747,0.4926 1.12204,0.95784 1.75146,1.47781 0.57472,0.46524 1.17678,0.90311 1.83359,1.39573 0.73892,0.54733 1.55993,1.09467 2.4083,1.642 0.9031,0.60207 1.86094,1.17679 2.87352,1.72412 1.99778,1.12204 4.18713,2.21671 6.62278,3.17456 0.90312,0.38313 1.8336,0.68418 2.81881,1.01257 0.9852,0.35577 1.94304,0.65682 2.983,0.93048 1.7241,0.54734 3.55769,0.95784 5.47336,1.34097 1.55992,0.30104 3.17456,0.57472 4.84395,0.73892 1.66937,0.16419 3.36613,0.35577 5.14497,0.46524 0.87575,0.0548 1.75148,0.0822 2.62723,0.10951 0.41049,0 0.84836,0 1.23151,0 3.20193,0 6.13018,-0.10951 8.86687,-0.38315 l 0.51998,-0.0274 c 1.09468,-0.10951 2.16198,-0.21893 3.17457,-0.35577 1.5599,-0.19156 3.03771,-0.41049 4.4608,-0.6568 0.9031,-0.16421 1.75147,-0.35577 2.59985,-0.51997 1.28625,-0.27367 2.54511,-0.60206 3.7219,-0.90311 0.87567,-0.21892 1.72418,-0.46524 2.51778,-0.7389 0.9852,-0.27367 1.9157,-0.5747 2.8187,-0.87574 l 0.8484,-0.3284 c 0.4379,-0.13689 1.0127,-0.35577 1.7241,-0.60207 0.9033,-0.35578 1.9978,-0.79366 3.2567,-1.31362 0.7389,-0.35576 1.5599,-0.68417 2.381,-1.0673 0.7389,-0.35578 1.5051,-0.71155 2.2987,-1.09467 0.3284,-0.16421 0.6569,-0.32842 0.9853,-0.51999 v -19.4305 c -0.2191,0.16421 -0.438,0.3284 -0.6843,0.46524 l -1.3409,0.76627 c -1.341,0.82103 -2.5998,1.58728 -3.8861,2.27147 -1.423,0.76626 -2.7914,1.50516 -4.1597,2.10724 -2.4084,1.12203 -4.7071,2.07988 -6.92389,2.90089 -4.24186,1.50518 -8.12796,2.4904 -11.57619,3.0651 -0.38314,0.0822 -0.79365,0.1642 -1.20415,0.21892 -0.93048,0.13688 -1.8336,0.24631 -2.70932,0.35578 -1.36834,0.13688 -2.59986,0.21894 -3.74927,0.27367 -0.7389,0.0274 -1.45045,0.0548 -2.05251,0.0548 -1.39572,0 -2.8188,-0.0548 -4.24189,-0.1369 -1.69673,-0.13689 -3.42084,-0.32838 -5.17234,-0.57469 -2.79141,-0.51998 -5.63757,-1.20414 -8.37427,-2.18935 -0.4105,-0.1642 -0.84837,-0.35577 -1.20414,-0.49261 -0.30103,-0.10951 -0.54734,-0.21893 -0.82101,-0.3284 -0.46522,-0.19156 -0.9031,-0.41051 -1.34097,-0.57472 -0.95784,-0.46522 -1.91569,-0.93046 -2.8188,-1.4778 -0.43786,-0.27367 -0.9031,-0.54734 -1.36834,-0.82101 -0.46523,-0.27366 -0.93049,-0.5747 -1.36834,-0.87575 -0.57472,-0.43786 -1.12205,-0.821 -1.66939,-1.23149 -0.54733,-0.46525 -1.09468,-0.87574 -1.53255,-1.25888 l -0.6568,-0.60207 -0.30103,-0.27367 -0.19157,-0.19157 -0.2463,-0.2463 c -0.87574,-0.84838 -1.66939,-1.72413 -2.38094,-2.62722 -0.43784,-0.49261 -0.79362,-0.98522 -1.17677,-1.47782 -0.35577,-0.49261 -0.68416,-0.95785 -1.01257,-1.45044 -0.27367,-0.46526 -0.54733,-0.90311 -0.82101,-1.39572 -0.41051,-0.6568 -0.76626,-1.36834 -1.12204,-2.02515 -0.27367,-0.5747 -0.54733,-1.1494 -0.79364,-1.7241 -0.4105,-0.98522 -0.76627,-1.97043 -1.0673,-2.90089 -0.24631,-0.71155 -0.43788,-1.45047 -0.60208,-2.13463 -0.51996,-2.02516 -0.79363,-3.91347 -0.93047,-5.47339 -0.0548,-0.60206 -0.0822,-1.17678 -0.10951,-1.69675 -0.0548,-0.76628 -0.0548,-1.45045 -0.0548,-1.9704 0,-0.38315 0,-0.76629 0,-1.25889 0.0548,-1.0673 0.13689,-2.51775 0.38313,-4.10504 0.13689,-0.95783 0.35578,-1.99778 0.60208,-3.09245 0.16421,-0.71155 0.38313,-1.47781 0.60207,-2.21674 0.21893,-0.68415 0.46524,-1.3957 0.73891,-2.10724 0.19157,-0.4926 0.38313,-0.98521 0.60208,-1.45044 0.27367,-0.65681 0.60205,-1.31363 0.93046,-1.99778 0.24631,-0.49262 0.54734,-0.98522 0.84837,-1.47781 0.62944,-1.12205 1.34099,-2.21673 2.18937,-3.3114 0.27367,-0.41051 0.5747,-0.79365 0.90311,-1.17678 0.41049,-0.49261 0.84837,-1.01257 1.28623,-1.47782 0.24631,-0.24629 0.46525,-0.51996 0.71155,-0.76627 3.55769,-3.55769 7.55326,-6.21228 11.71302,-8.1006 0.65682,-0.30104 1.31362,-0.54734 1.97042,-0.82101 0.62944,-0.24631 1.28624,-0.4926 1.97042,-0.68416 0.71154,-0.27367 1.45045,-0.49262 2.16199,-0.68419 0.68418,-0.1642 1.36834,-0.35576 2.05252,-0.4926 0.68417,-0.19158 1.36834,-0.3284 2.05251,-0.46525 0.76628,-0.13689 1.50518,-0.24628 2.24408,-0.35576 0.7663,-0.0822 1.50519,-0.16419 2.24409,-0.21893 1.39573,-0.1369 2.79144,-0.19156 4.15977,-0.19156 0.43788,0 0.90311,0 1.34098,0 1.01258,0.0274 1.99778,0.0548 2.95563,0.13688 0.68417,0.0274 1.31361,0.0822 1.94304,0.13689 1.25889,0.1095 2.43566,0.27367 3.53034,0.43787 1.01258,0.13689 1.97041,0.32839 2.87352,0.51997 1.42309,0.27367 2.68196,0.5747 3.83138,0.87574 0.7389,0.21894 1.42307,0.41051 2.02515,0.57471 0.95785,0.27367 1.77885,0.51997 2.38091,0.7389 1.09469,0.38313 1.66938,0.57471 1.66938,0.57471 0.95788,0.32841 1.88819,0.71153 2.81869,1.0673 1.2589,0.4926 2.4084,1.03996 3.5578,1.55992 0.9304,0.43787 1.8336,0.84838 2.6545,1.31362 0.7116,0.32838 1.341,0.62943 1.9704,0.95783 1.04,0.57472 1.9431,1.03994 2.6821,1.47782 l 1.9703,1.06731 v -19.07474 c 0,0 -1.1768,-0.51996 -3.2293,-1.28625 -0.9031,-0.35576 -1.9703,-0.73889 -3.2019,-1.17676 -0.6842,-0.24633 -1.3958,-0.51999 -2.1346,-0.76628 -0.6295,-0.19157 -1.2589,-0.41051 -1.8883,-0.57472 -0.7389,-0.27366 -1.4779,-0.51997 -2.2715,-0.73889 -0.5474,-0.16421 -1.122,-0.32841 -1.7241,-0.51998 l -0.49252,-0.1642 c -0.57473,-0.16419 -1.14943,-0.3284 -1.72413,-0.46524 -0.71154,-0.19157 -1.42309,-0.38313 -2.13463,-0.5747 -0.43788,-0.10951 -0.9031,-0.21893 -1.36834,-0.32841 -0.73891,-0.16419 -1.50518,-0.35577 -2.29881,-0.49259 -0.76629,-0.16421 -1.58729,-0.32841 -2.38093,-0.46524"
       clip-path="url(#SVGID_48_)" />
    <path
       style="fill:#ffffff;stroke-width:27.3669"
       id="path1151"
       d="m 777.98096,414.33479 v 27.99634 h 18.17163 c 0,0 0.38313,-0.0274 0.95783,-0.0548 0.62944,0 1.50519,-0.0548 2.54513,-0.13689 1.97041,-0.19156 4.57027,-0.54733 7.08802,-1.39572 2.29884,-0.76626 4.51555,-1.91568 6.21229,-3.61243 0.65681,-0.6568 1.20414,-1.34098 1.61466,-2.02514 1.45044,-2.24409 1.80622,-4.54291 1.86093,-5.82916 0.0822,-0.5747 0.0548,-0.90312 0.0548,-0.90312 0,0 0.0274,-0.2463 0,-0.68415 -0.0274,-0.54734 -0.0822,-1.58729 -0.38312,-2.70933 -0.32842,-1.31361 -0.98522,-2.84617 -2.10727,-4.26924 -0.21893,-0.27367 -0.46525,-0.54734 -0.71153,-0.76628 -0.49261,-0.51997 -1.03995,-0.9852 -1.64203,-1.45044 -0.98521,-0.71153 -2.13461,-1.34098 -3.36612,-1.86095 -1.61465,-0.71155 -3.44822,-1.2315 -5.47338,-1.64201 -1.01258,-0.19157 -2.10725,-0.35578 -3.22929,-0.46524 -0.68418,-0.0548 -1.36835,-0.1095 -2.10726,-0.13689 -0.60207,-0.0274 -1.25889,-0.0822 -1.91568,-0.0822 -6.45859,0.0274 -17.56956,0.0274 -17.56956,0.0274"
       clip-path="url(#SVGID_48_)" />
    <path
       style="fill:#ffffff;stroke-width:27.3669"
       id="path1153"
       d="m 777.98096,371.75187 v 26.54589 h 8.81214 c 0,0 0.57472,0 1.34098,-0.0274 0.62944,-0.0274 1.34099,-0.0548 1.99778,-0.0822 1.80622,-0.13689 4.32397,-0.38313 6.81438,-1.09468 0.49258,-0.13688 0.9852,-0.27367 1.4778,-0.49261 1.97042,-0.65681 3.83135,-1.72411 5.30918,-3.11982 1.17677,-1.14941 1.94305,-2.43565 2.43565,-3.66717 0.62945,-1.5599 0.84837,-2.98299 0.93048,-3.99557 0.0822,-0.93046 0.0822,-1.50517 0.0822,-1.50517 0,0 0,-0.46525 -0.0274,-1.14941 -0.0548,-1.1494 -0.30104,-3.03773 -1.20415,-4.84395 -0.43788,-0.84838 -1.03994,-1.72411 -1.86095,-2.51776 -0.9852,-0.98519 -2.18935,-1.7241 -3.4756,-2.2988 -2.49038,-1.09469 -5.33654,-1.53255 -7.71746,-1.69676 -1.03996,-0.0822 -1.97042,-0.0822 -2.79143,-0.0822 h -12.12354 z"
       clip-path="url(#SVGID_48_)" />
    <path
       style="fill:#ffffff;stroke-width:27.3669"
       id="path1155"
       d="M 719.85365,335.73702 H 871.30211 V 478.2365 H 719.85365 Z m 39.73675,19.97786 v 102.62588 h 38.64206 c 0,0 18.82843,0.51998 29.22787,-9.87944 8.48375,-8.45638 7.8543,-18.25373 7.8543,-18.25373 0,0 0.62945,-10.23523 -7.22486,-18.0348 -6.67753,-6.70487 -15.18864,-8.51109 -15.18864,-8.51109 0,0 3.83137,-1.80622 6.78699,-4.76185 1.39572,-1.39572 6.32175,-5.82916 6.32175,-16.63907 0,-10.86468 -7.25223,-17.15905 -7.25223,-17.15905 0,0 -7.93639,-9.38685 -25.86171,-9.38685 z"
       clip-path="url(#SVGID_48_)" />
    <path
       style="fill:#ffffff;stroke-width:27.3669"
       id="path1157"
       d="m 603.48957,414.33479 v 27.99634 h 18.17162 c 0,0 0.38315,-0.0274 0.95785,-0.0548 0.62944,0 1.47781,-0.0548 2.54512,-0.13689 1.97042,-0.19156 4.57027,-0.54733 7.08803,-1.39572 2.29882,-0.76626 4.48817,-1.91568 6.21228,-3.61243 0.62944,-0.6568 1.17679,-1.34098 1.61465,-2.02514 1.45044,-2.24409 1.77885,-4.54291 1.86095,-5.82916 0.0548,-0.5747 0.0548,-0.90312 0.0548,-0.90312 0,0 0,-0.2463 0,-0.68415 -0.0274,-0.54734 -0.10951,-1.58729 -0.38315,-2.70933 -0.32839,-1.31361 -0.9852,-2.84617 -2.10725,-4.26924 -0.21893,-0.27367 -0.46523,-0.54734 -0.71153,-0.76628 -0.51998,-0.51997 -1.03995,-0.9852 -1.64201,-1.45044 -0.98522,-0.71153 -2.13463,-1.34098 -3.36614,-1.86095 -1.64202,-0.71155 -3.4756,-1.2315 -5.47339,-1.64201 -1.01256,-0.19157 -2.10724,-0.35578 -3.22929,-0.46524 -0.68416,-0.0548 -1.3957,-0.1095 -2.07989,-0.13689 -0.62943,-0.0274 -1.28623,-0.0822 -1.94303,-0.0822 -6.4586,0.0274 -17.56957,0.0274 -17.56957,0.0274"
       clip-path="url(#SVGID_48_)" />
    <path
       style="fill:#ffffff;stroke-width:27.3669"
       id="path1159"
       d="m 603.48957,371.75187 v 26.54589 h 8.78477 c 0,0 0.60209,0 1.36836,-0.0274 0.62945,-0.0274 1.34096,-0.0548 1.99778,-0.0822 1.80622,-0.13689 4.32398,-0.38313 6.81435,-1.09468 0.49262,-0.13688 0.98522,-0.27367 1.45044,-0.49261 1.97043,-0.65681 3.85874,-1.72411 5.33656,-3.11982 1.1494,-1.14941 1.94305,-2.43565 2.43564,-3.66717 0.62945,-1.5599 0.8484,-2.98299 0.93049,-3.99557 0.0822,-0.93046 0.0822,-1.50517 0.0822,-1.50517 0,0 0.0274,-0.46525 -0.0274,-1.14941 -0.0548,-1.1494 -0.30103,-3.03773 -1.20414,-4.84395 -0.43787,-0.84838 -1.03995,-1.72411 -1.86095,-2.51776 -0.98522,-0.98519 -2.18935,-1.7241 -3.47559,-2.2988 -2.4904,-1.09469 -5.33655,-1.53255 -7.71748,-1.69676 -1.03994,-0.0822 -1.99779,-0.0822 -2.79143,-0.0822 h -12.12353 z"
       clip-path="url(#SVGID_48_)" />
    <path
       style="fill:#ffffff;stroke-width:27.3669"
       id="path1161"
       d="M 545.36225,335.73702 H 696.81073 V 478.2365 H 545.36225 Z m 39.73676,19.97786 v 102.62588 h 38.64206 c 0,0 18.82845,0.51998 29.22787,-9.87944 8.48373,-8.45638 7.88166,-18.25373 7.88166,-18.25373 0,0 0.60207,-10.23523 -7.25222,-18.0348 -6.67753,-6.70487 -15.18863,-8.51109 -15.18863,-8.51109 0,0 3.85874,-1.80622 6.81435,-4.76185 1.36834,-1.39572 6.29439,-5.82916 6.29439,-16.63907 0,-10.86468 -7.25223,-17.15905 -7.25223,-17.15905 0,0 -7.9364,-9.38685 -25.86173,-9.38685 z"
       clip-path="url(#SVGID_48_)" />
    <polygon
       points="84.227,508.179 85.519,504.966 86.154,504.966 87.453,508.179 88.724,504.966 89.387,504.966 87.494,509.669 87.364,509.669 85.833,505.855 84.288,509.669 84.158,509.669 82.272,504.966 82.942,504.966 "
       id="polygon1163"
       transform="matrix(27.366905,0,0,27.366905,-1794.8093,-13293.721)"
       style="fill:#ffffff" />
    <path
       style="fill:#ffffff;stroke-width:27.3669"
       id="path1173"
       d="m 721.05779,638.05923 c 28.62578,0 49.75303,-20.74411 49.75303,-48.63099 0,-28.02371 -21.12725,-48.60362 -49.75303,-48.60362 -28.43421,0 -49.56146,20.57991 -49.56146,48.60362 0,27.88688 21.12725,48.63099 49.56146,48.63099 m 0,-114.09263 c 42.0903,0 68.66358,29.93938 68.66358,65.46164 0,34.42756 -25.83436,65.51637 -69.0467,65.51637 -41.70718,0 -68.08887,-30.86986 -68.08887,-65.51637 0,-35.38541 27.1206,-65.46164 68.47199,-65.46164"
       clip-path="url(#SVGID_50_)" />
    <path
       style="fill:#ffffff;stroke-width:27.3669"
       id="path1175"
       d="m 830.85382,581.38237 h 11.79514 c 19.62207,0 25.25965,-10.09839 25.06808,-20.79886 -0.19157,-11.95932 -7.30697,-19.23892 -25.06808,-19.23892 h -11.79514 z m 13.87503,-55.74639 c 25.80698,0 41.89873,13.6561 41.89873,35.74118 0,14.77813 -7.66275,25.807 -21.31882,31.253 11.60355,7.63538 18.6916,19.45788 28.43422,35.35805 5.41864,8.75741 8.5932,13.08139 17.37798,25.25965 H 889.2548 L 872.42416,627.05774 C 855.56614,600.86762 847.9034,597.85725 838.54392,597.85725 h -7.66274 v 55.39061 h -18.33583 v -127.5845 h 32.1835 z"
       clip-path="url(#SVGID_50_)" />
    <polygon
       points="102.157,509.026 102.157,509.628 99.381,509.628 99.381,504.966 100.052,504.966 100.052,509.026 "
       id="polygon1177"
       transform="matrix(27.366905,0,0,27.366905,-1794.8093,-13293.721)"
       style="fill:#ffffff" />
    <path
       style="fill:#ffffff;stroke-width:27.3669"
       id="path1187"
       d="m 1035.3394,636.74562 h 29.173 c 41.543,0 51.0667,-31.58141 51.0667,-47.31738 0,-25.67016 -16.2559,-47.34474 -51.9971,-47.34474 h -28.2426 z m -18.3359,-111.10964 h 49.5615 c 47.1532,0 67.9246,33.63394 67.9246,63.79226 0,32.70345 -25.6428,63.79226 -67.7331,63.79226 h -49.753 z"
       clip-path="url(#SVGID_52_)" />
    <path
       style="fill:#ffffff;stroke-width:27.3669"
       id="path1189"
       d="m 541.17514,715.72651 c -10.8373,-10.28995 -21.31884,-13.27294 -29.93942,-13.27294 -11.76776,0 -20.19676,6.15754 -20.19676,15.13389 0,24.52075 55.19904,24.13761 55.19904,64.72273 0,20.03258 -15.16127,34.61912 -35.74117,34.61912 -13.84765,0 -25.06809,-3.74926 -35.7412,-11.79512 v -23.17978 c 9.3595,11.95934 21.15464,18.5274 33.68869,18.5274 14.20342,0 20.7441,-9.0037 20.7441,-16.09174 0,-26.38169 -55.17168,-29.39204 -55.17168,-64.39432 0,-20.77149 15.35283,-34.01708 38.72418,-34.01708 9.71525,0 19.45787,2.95564 28.43422,8.94898 z"
       clip-path="url(#SVGID_52_)" />
    <polygon
       points="88.981,514.947 88.981,515.547 86.274,515.547 86.274,510.885 88.919,510.885 88.919,511.488 86.944,511.488 86.944,512.895 88.851,512.895 88.851,513.498 86.944,513.498 86.944,514.947 "
       id="polygon1191"
       transform="matrix(27.366905,0,0,27.366905,-1794.8093,-13293.721)"
       style="fill:#ffffff" />
    <path
       style="fill:#ffffff;stroke-width:27.3669"
       id="path1201"
       d="m 678.4749,743.36709 h 11.79513 c 19.62207,0 25.25965,-10.07103 25.06808,-20.77148 -0.19156,-11.95935 -7.30696,-19.26632 -25.06808,-19.26632 H 678.4749 Z m 13.82028,-55.71903 c 25.80699,0 41.89874,13.62872 41.89874,35.74118 0,14.77813 -7.66275,25.77963 -21.31882,31.22564 11.60355,7.69009 18.69159,19.45788 28.4342,35.35805 5.41865,8.78476 8.59323,13.10874 17.378,25.25965 h -21.86616 l -16.83066,-26.19013 c -16.858,-26.19014 -24.52074,-29.14575 -33.88022,-29.14575 h -7.66274 v 55.33588 H 660.11169 V 687.67543 h 32.18349 z"
       clip-path="url(#SVGID_54_)" />
    <polygon
       points="94.915,515.588 94.777,515.588 92.762,510.885 93.432,510.885 94.833,514.16 96.227,510.885 96.89,510.885 "
       id="polygon1203"
       transform="matrix(27.366905,0,0,27.366905,-1794.8093,-13293.721)"
       style="fill:#ffffff" />
    <rect
       x="871.00104"
       y="687.62006"
       width="18.335827"
       height="127.58453"
       id="rect1205"
       style="fill:#ffffff;stroke-width:2.53814" />
    <path
       style="fill:#ffffff;stroke-width:27.3669"
       id="path1215"
       d="m 1026.2534,716.08228 c -15.7085,-9.16792 -29.17299,-13.27295 -43.95112,-13.27295 -29.20049,0 -50.87508,20.7441 -50.87508,48.82255 0,28.62579 20.93568,48.43944 51.61398,48.43944 14.39499,0 30.13102,-5.03552 44.52602,-14.36764 v 19.97784 c -12.5342,6.54069 -26.1902,11.22044 -46.1954,11.22044 -47.89208,0 -68.85512,-36.83586 -68.85512,-63.60069 0,-38.91573 29.36468,-67.3226 69.97717,-67.3226 13.08137,0 26.35435,3.14721 43.75955,10.45417 z"
       clip-path="url(#SVGID_56_)" />
    <polygon
       points="106.657,514.947 106.657,515.547 103.951,515.547 103.951,510.885 106.596,510.885 106.596,511.488 104.621,511.488 104.621,512.895 106.528,512.895 106.528,513.498 104.621,513.498 104.621,514.947 "
       id="polygon1217"
       transform="matrix(27.366905,0,0,27.366905,-1794.8093,-13293.721)"
       style="fill:#ffffff" />
  </g>
</svg>
